<svg width="24" height="24" viewBox="0 0 24 24" fill="none" xmlns="http://www.w3.org/2000/svg">
<path id="Vector" d="M24.0001 2V22C24.0001 22.5304 23.7894 23.0391 23.4143 23.4142C23.0392 23.7893 22.5305 24 22.0001 24H13.0001C12.7349 24 12.4805 23.8946 12.293 23.7071C12.1054 23.5196 12.0001 23.2652 12.0001 23C12.0001 22.7348 12.1054 22.4804 12.293 22.2929C12.4805 22.1054 12.7349 22 13.0001 22H22.0001V2H2.00007V14C2.00007 14.2652 1.89471 14.5196 1.70717 14.7071C1.51964 14.8946 1.26528 15 1.00007 15C0.734851 15 0.480497 14.8946 0.292961 14.7071C0.105425 14.5196 6.77109e-05 14.2652 6.77109e-05 14V2C6.77109e-05 1.46957 0.210781 0.960859 0.585854 0.585786C0.960927 0.210714 1.46963 0 2.00007 0H22.0001C22.5305 0 23.0392 0.210714 23.4143 0.585786C23.7894 0.960859 24.0001 1.46957 24.0001 2ZM11.7076 15.2925C11.6147 15.1995 11.5044 15.1258 11.383 15.0754C11.2616 15.0251 11.1315 14.9992 11.0001 14.9992C10.8687 14.9992 10.7385 15.0251 10.6171 15.0754C10.4957 15.1258 10.3854 15.1995 10.2926 15.2925L4.00007 21.5863L1.70757 19.2925C1.61466 19.1996 1.50436 19.1259 1.38296 19.0756C1.26157 19.0253 1.13146 18.9994 1.00007 18.9994C0.868673 18.9994 0.738564 19.0253 0.617171 19.0756C0.495778 19.1259 0.385478 19.1996 0.292568 19.2925C0.199657 19.3854 0.125957 19.4957 0.0756745 19.6171C0.0253919 19.7385 -0.000488281 19.8686 -0.000488281 20C-0.000488281 20.1314 0.0253919 20.2615 0.0756745 20.3829C0.125957 20.5043 0.199657 20.6146 0.292568 20.7075L3.29257 23.7075C3.38544 23.8005 3.49573 23.8742 3.61713 23.9246C3.73853 23.9749 3.86865 24.0008 4.00007 24.0008C4.13148 24.0008 4.26161 23.9749 4.38301 23.9246C4.50441 23.8742 4.6147 23.8005 4.70757 23.7075L11.7076 16.7075C11.8005 16.6146 11.8743 16.5043 11.9246 16.3829C11.975 16.2615 12.0009 16.1314 12.0009 16C12.0009 15.8686 11.975 15.7385 11.9246 15.6171C11.8743 15.4957 11.8005 15.3854 11.7076 15.2925Z" fill="#00C9AA"/>
</svg>
