<svg width="32" height="32" viewBox="0 0 32 32" fill="none" xmlns="http://www.w3.org/2000/svg">
<g id="Frame">
<path id="Vector" d="M27 4.99999V28C27 28.2652 26.8946 28.5196 26.7071 28.7071C26.5196 28.8946 26.2652 29 26 29C25.7348 29 25.4804 28.8946 25.2929 28.7071C25.1054 28.5196 25 28.2652 25 28V22H19C18.7348 22 18.4804 21.8946 18.2929 21.7071C18.1054 21.5196 18 21.2652 18 21C18.0464 18.6046 18.349 16.221 18.9025 13.89C20.125 8.82874 22.4425 5.43624 25.6063 4.08124C25.7583 4.0161 25.9242 3.98971 26.0889 4.00442C26.2537 4.01913 26.4123 4.07449 26.5504 4.16554C26.6885 4.25658 26.8019 4.38047 26.8803 4.52611C26.9588 4.67174 26.9999 4.83456 27 4.99999ZM14.9862 4.83624C14.9667 4.70493 14.9211 4.57884 14.8523 4.46532C14.7835 4.35179 14.6927 4.25311 14.5854 4.17503C14.478 4.09694 14.3562 4.04102 14.2269 4.01052C14.0977 3.98001 13.9637 3.97555 13.8328 3.99737C13.7018 4.0192 13.5765 4.06688 13.4642 4.13764C13.3519 4.2084 13.2548 4.30081 13.1785 4.4095C13.1023 4.51818 13.0484 4.64096 13.0202 4.77067C12.9919 4.90038 12.9897 5.03443 13.0138 5.16499L13.9862 11H11V4.99999C11 4.73477 10.8946 4.48042 10.7071 4.29288C10.5196 4.10535 10.2652 3.99999 10 3.99999C9.73478 3.99999 9.48043 4.10535 9.29289 4.29288C9.10536 4.48042 9 4.73477 9 4.99999V11H6.01375L6.98625 5.16499C7.01031 5.03443 7.00813 4.90038 6.97984 4.77067C6.95155 4.64096 6.89772 4.51818 6.82148 4.4095C6.74524 4.30081 6.64812 4.2084 6.53579 4.13764C6.42346 4.06688 6.29816 4.0192 6.16721 3.99737C6.03625 3.97555 5.90227 3.98001 5.77306 4.01052C5.64385 4.04102 5.52201 4.09694 5.41464 4.17503C5.30727 4.25311 5.21653 4.35179 5.1477 4.46532C5.07887 4.57884 5.03334 4.70493 5.01375 4.83624L4.01375 10.8362C4.00478 10.8904 4.00018 10.9451 4 11C4.002 12.4173 4.5049 13.7882 5.41983 14.8706C6.33477 15.9529 7.60285 16.6771 9 16.915V28C9 28.2652 9.10536 28.5196 9.29289 28.7071C9.48043 28.8946 9.73478 29 10 29C10.2652 29 10.5196 28.8946 10.7071 28.7071C10.8946 28.5196 11 28.2652 11 28V16.915C12.3971 16.6771 13.6652 15.9529 14.5802 14.8706C15.4951 13.7882 15.998 12.4173 16 11C15.9998 10.9451 15.9952 10.8904 15.9862 10.8362L14.9862 4.83624Z" fill="white"/>
</g>
</svg>
