<svg width="32" height="32" viewBox="0 0 32 32" fill="none" xmlns="http://www.w3.org/2000/svg">
<path d="M9.00001 11V4.99999C9.00001 4.73477 9.10537 4.48042 9.2929 4.29288C9.48044 4.10535 9.73479 3.99999 10 3.99999C10.2652 3.99999 10.5196 4.10535 10.7071 4.29288C10.8947 4.48042 11 4.73477 11 4.99999V11C11 11.2652 10.8947 11.5196 10.7071 11.7071C10.5196 11.8946 10.2652 12 10 12C9.73479 12 9.48044 11.8946 9.2929 11.7071C9.10537 11.5196 9.00001 11.2652 9.00001 11ZM27 4.99999V28C27 28.2652 26.8947 28.5196 26.7071 28.7071C26.5196 28.8946 26.2652 29 26 29C25.7348 29 25.4804 28.8946 25.2929 28.7071C25.1054 28.5196 25 28.2652 25 28V22H19C18.7348 22 18.4804 21.8946 18.2929 21.7071C18.1054 21.5196 18 21.2652 18 21C18.0464 18.6046 18.349 16.221 18.9025 13.89C20.125 8.82874 22.4425 5.43624 25.6063 4.08124C25.7583 4.0161 25.9242 3.98971 26.0889 4.00442C26.2537 4.01913 26.4123 4.07449 26.5504 4.16554C26.6885 4.25658 26.8019 4.38047 26.8803 4.52611C26.9588 4.67174 26.9999 4.83456 27 4.99999ZM25 6.73749C20.9788 9.80874 20.1913 17.29 20.0375 20H25V6.73749ZM14.9863 4.83624C14.9667 4.70493 14.9211 4.57884 14.8523 4.46532C14.7835 4.35179 14.6927 4.25311 14.5854 4.17503C14.478 4.09694 14.3562 4.04102 14.227 4.01052C14.0977 3.98001 13.9638 3.97555 13.8328 3.99737C13.7018 4.0192 13.5766 4.06688 13.4642 4.13764C13.3519 4.2084 13.2548 4.30081 13.1785 4.4095C13.1023 4.51818 13.0485 4.64096 13.0202 4.77067C12.9919 4.90038 12.9897 5.03443 13.0138 5.16499L14 11.0787C14 12.1396 13.5786 13.157 12.8284 13.9072C12.0783 14.6573 11.0609 15.0787 10 15.0787C8.93914 15.0787 7.92173 14.6573 7.17158 13.9072C6.42144 13.157 6.00001 12.1396 6.00001 11.0787L6.98501 5.16499C7.00907 5.03443 7.00689 4.90038 6.9786 4.77067C6.95031 4.64096 6.89648 4.51818 6.82024 4.4095C6.744 4.30081 6.64688 4.2084 6.53455 4.13764C6.42222 4.06688 6.29692 4.0192 6.16597 3.99737C6.03501 3.97555 5.90103 3.98001 5.77182 4.01052C5.64261 4.04102 5.52077 4.09694 5.4134 4.17503C5.30603 4.25311 5.21529 4.35179 5.14646 4.46532C5.07763 4.57884 5.03209 4.70493 5.01251 4.83624L4.01251 10.8362C4.00395 10.8904 3.99977 10.9452 4.00001 11C4.00201 12.4173 4.50491 13.7882 5.41984 14.8706C6.33478 15.9529 7.60286 16.6771 9.00001 16.915V28C9.00001 28.2652 9.10537 28.5196 9.2929 28.7071C9.48044 28.8946 9.73479 29 10 29C10.2652 29 10.5196 28.8946 10.7071 28.7071C10.8947 28.5196 11 28.2652 11 28V16.915C12.3972 16.6771 13.6652 15.9529 14.5802 14.8706C15.4951 13.7882 15.998 12.4173 16 11C15.9998 10.9451 15.9952 10.8904 15.9863 10.8362L14.9863 4.83624Z" fill="white"/>
</svg>
