<svg width="32" height="32" viewBox="0 0 32 32" fill="none" xmlns="http://www.w3.org/2000/svg">
<g id="Frame">
<path id="Vector" d="M28 15V27C28 27.2652 27.8946 27.5196 27.7071 27.7071C27.5196 27.8946 27.2652 28 27 28H20C19.7348 28 19.4804 27.8946 19.2929 27.7071C19.1054 27.5196 19 27.2652 19 27V20.5C19 20.3674 18.9473 20.2402 18.8536 20.1464C18.7598 20.0527 18.6326 20 18.5 20H13.5C13.3674 20 13.2402 20.0527 13.1464 20.1464C13.0527 20.2402 13 20.3674 13 20.5V27C13 27.2652 12.8946 27.5196 12.7071 27.7071C12.5196 27.8946 12.2652 28 12 28H5C4.73478 28 4.48043 27.8946 4.29289 27.7071C4.10536 27.5196 4 27.2652 4 27V15C4.00025 14.4696 4.21112 13.9611 4.58625 13.5862L14.5863 3.58624C14.9613 3.21145 15.4698 3.00092 16 3.00092C16.5302 3.00092 17.0387 3.21145 17.4137 3.58624L27.4137 13.5862C27.7889 13.9611 27.9998 14.4696 28 15Z" fill="white"/>
</g>
</svg>
