<svg width="36" height="37" viewBox="0 0 36 37" fill="none" xmlns="http://www.w3.org/2000/svg">
<path d="M2.64424 18.5435C2.65212 22.2875 4.03297 25.8986 6.52519 28.6926L6.63108 28.8113L6.72138 28.6804C7.71891 27.2335 8.98605 25.9926 10.4534 25.0255L10.4535 25.0255C10.557 24.9571 10.68 24.9246 10.8037 24.9328C10.9274 24.941 11.045 24.9895 11.1385 25.0708L11.1388 25.0711C13.0432 26.7183 15.4769 27.6248 17.9948 27.6248C20.5127 27.6248 22.9464 26.7183 24.8508 25.0711L24.8511 25.0708C24.9446 24.9895 25.0622 24.941 25.186 24.9328C25.3097 24.9246 25.4327 24.9571 25.5361 25.0255L25.5363 25.0256C27.0055 25.9921 28.2744 27.2331 29.2735 28.6804L29.3637 28.8112L29.4696 28.6927C31.9741 25.8885 33.3576 22.2598 33.3558 18.4999V18.4999C33.3535 16.433 32.9345 14.3878 32.1237 12.4867C31.313 10.5855 30.1271 8.86733 28.6371 7.43496C27.147 6.0026 25.3834 4.88544 23.4518 4.1503C21.5201 3.41516 19.46 3.07713 17.3946 3.15644L17.3946 3.15644C9.17532 3.47404 2.6216 10.3193 2.64424 18.5435ZM2.64424 18.5435L2.76924 18.5433M2.64424 18.5435C2.64424 18.5436 2.64424 18.5436 2.64424 18.5436L2.76924 18.5433M2.76924 18.5433C2.77696 22.2137 4.11513 25.7554 6.53317 28.513M2.76924 18.5433C2.74674 10.3862 9.24751 3.59635 17.3994 3.28135L6.53317 28.513M6.53317 28.513C6.52729 28.5215 6.52142 28.53 6.51556 28.5385L6.61847 28.6094L6.71175 28.5262C6.70513 28.5188 6.69852 28.5114 6.69192 28.5039C7.68704 27.089 8.93963 25.8735 10.3846 24.9211C10.5109 24.8378 10.661 24.798 10.8119 24.808C10.9629 24.818 11.1064 24.8772 11.2206 24.9765C13.1022 26.6041 15.5069 27.4998 17.9948 27.4998C20.4827 27.4998 22.8874 26.6041 24.769 24.9765M6.53317 28.513L24.769 24.9765M24.769 24.9765C24.8832 24.8772 25.0267 24.818 25.1777 24.808M24.769 24.9765L25.1777 24.808M25.1777 24.808C25.3287 24.798 25.4788 24.8378 25.605 24.9211L25.1777 24.808ZM25.4904 17.1155C25.4904 18.5969 25.0511 20.0451 24.228 21.2768C23.405 22.5086 22.2351 23.4687 20.8664 24.0356C19.4978 24.6025 17.9917 24.7509 16.5387 24.4618C15.0857 24.1728 13.7511 23.4594 12.7035 22.4119C11.656 21.3643 10.9426 20.0297 10.6535 18.5767C10.3645 17.1237 10.5129 15.6176 11.0798 14.2489C11.6467 12.8802 12.6068 11.7104 13.8386 10.8874C15.0703 10.0643 16.5185 9.62503 17.9999 9.625C19.9858 9.62725 21.8897 10.4172 23.294 11.8214C24.6982 13.2257 25.4881 15.1296 25.4904 17.1155ZM35.875 18.5001C35.875 22.0354 34.8266 25.4913 32.8625 28.4308C30.8984 31.3703 28.1067 33.6614 24.8405 35.0143C21.5742 36.3673 17.9802 36.7212 14.5128 36.0315C11.0454 35.3418 7.86034 33.6394 5.36047 31.1395C2.86061 28.6397 1.15818 25.4546 0.468471 21.9872C-0.22124 18.5198 0.132745 14.9258 1.48566 11.6595C2.83858 8.3933 5.12966 5.60161 8.06919 3.63748C11.0087 1.67336 14.4646 0.625013 17.9999 0.625C22.7392 0.630021 27.2828 2.51489 30.634 5.86603C33.9851 9.21718 35.87 13.7609 35.875 18.5001Z" fill="white" stroke="#25D2B7" stroke-width="0.25"/>
</svg>
