<svg width="32" height="32" viewBox="0 0 32 32" fill="none" xmlns="http://www.w3.org/2000/svg">
<path d="M27.4138 13.585L17.4138 3.58499C17.0387 3.2102 16.5302 2.99966 16 2.99966C15.4698 2.99966 14.9613 3.2102 14.5863 3.58499L4.58626 13.585C4.39964 13.7702 4.25171 13.9907 4.15107 14.2336C4.05042 14.4765 3.99908 14.737 4.00001 15V27C4.00001 27.2652 4.10537 27.5196 4.29291 27.7071C4.48044 27.8946 4.7348 28 5.00001 28H13C13.2652 28 13.5196 27.8946 13.7071 27.7071C13.8947 27.5196 14 27.2652 14 27V20H18V27C18 27.2652 18.1054 27.5196 18.2929 27.7071C18.4804 27.8946 18.7348 28 19 28H27C27.2652 28 27.5196 27.8946 27.7071 27.7071C27.8947 27.5196 28 27.2652 28 27V15C28.0009 14.737 27.9496 14.4765 27.849 14.2336C27.7483 13.9907 27.6004 13.7702 27.4138 13.585ZM26 26H20V19C20 18.7348 19.8947 18.4804 19.7071 18.2929C19.5196 18.1053 19.2652 18 19 18H13C12.7348 18 12.4804 18.1053 12.2929 18.2929C12.1054 18.4804 12 18.7348 12 19V26H6.00001V15L16 4.99999L26 15V26Z" fill="white"/>
</svg>
