<svg width="28" height="28" viewBox="0 0 28 28" fill="none" xmlns="http://www.w3.org/2000/svg">
<path id="Vector" d="M12 8.5C12 8.10444 12.1173 7.71776 12.3371 7.38886C12.5568 7.05996 12.8692 6.80362 13.2346 6.65224C13.6001 6.50087 14.0022 6.46126 14.3902 6.53843C14.7781 6.6156 15.1345 6.80608 15.4142 7.08579C15.6939 7.36549 15.8844 7.72186 15.9616 8.10982C16.0387 8.49778 15.9991 8.89991 15.8478 9.26537C15.6964 9.63082 15.44 9.94318 15.1111 10.1629C14.7822 10.3827 14.3956 10.5 14 10.5C13.4696 10.5 12.9609 10.2893 12.5858 9.91421C12.2107 9.53914 12 9.03043 12 8.5ZM6 8.5C6 6.37827 6.84285 4.34344 8.34315 2.84315C9.84344 1.34285 11.8783 0.5 14 0.5C16.1217 0.5 18.1566 1.34285 19.6569 2.84315C21.1571 4.34344 22 6.37827 22 8.5C22 15.9937 14.8025 20.1925 14.5 20.3687C14.3489 20.4551 14.1778 20.5006 14.0037 20.5006C13.8297 20.5006 13.6586 20.4551 13.5075 20.3687C13.1975 20.1925 6 16 6 8.5ZM8 8.5C8 13.775 12.48 17.2763 14 18.3125C15.5188 17.2775 20 13.775 20 8.5C20 6.9087 19.3679 5.38258 18.2426 4.25736C17.1174 3.13214 15.5913 2.5 14 2.5C12.4087 2.5 10.8826 3.13214 9.75736 4.25736C8.63214 5.38258 8 6.9087 8 8.5ZM23.3463 16.9538C23.1001 16.8724 22.832 16.8899 22.5985 17.0024C22.365 17.1149 22.1843 17.3137 22.0945 17.5568C22.0047 17.8 22.0128 18.0685 22.1171 18.3058C22.2215 18.5431 22.4139 18.7306 22.6537 18.8288C24.7175 19.5925 26 20.615 26 21.5C26 23.17 21.435 25.5 14 25.5C6.565 25.5 2 23.17 2 21.5C2 20.615 3.2825 19.5925 5.34625 18.83C5.58614 18.7318 5.77853 18.5443 5.88286 18.307C5.98719 18.0697 5.99531 17.8012 5.90551 17.5581C5.8157 17.3149 5.63499 17.1161 5.40147 17.0036C5.16795 16.8911 4.89987 16.8737 4.65375 16.955C1.6525 18.0613 0 19.6763 0 21.5C0 25.3975 7.21375 27.5 14 27.5C20.7863 27.5 28 25.3975 28 21.5C28 19.6763 26.3475 18.0613 23.3463 16.9538Z" fill="#00C9AA"/>
</svg>
