<svg width="32" height="32" viewBox="0 0 32 32" fill="none" xmlns="http://www.w3.org/2000/svg">
<g id="Frame">
<path id="Vector" d="M28.615 6.21127C28.4952 6.11793 28.3557 6.0531 28.2072 6.02169C28.0586 5.99029 27.9048 5.99314 27.7575 6.03002L20.1162 7.94002L12.4475 4.10502C12.2338 3.99844 11.9891 3.97184 11.7575 4.03002L3.7575 6.03002C3.54116 6.08409 3.3491 6.20893 3.21185 6.38468C3.0746 6.56044 3.00003 6.77702 3 7.00002V25C3.00002 25.152 3.03467 25.3019 3.10132 25.4385C3.16797 25.575 3.26486 25.6946 3.38463 25.7881C3.50441 25.8816 3.64392 25.9466 3.79256 25.9781C3.94121 26.0096 4.09508 26.0069 4.2425 25.97L11.8837 24.06L19.5525 27.895C19.6917 27.9637 19.8448 27.9996 20 28C20.0818 28 20.1632 27.9899 20.2425 27.97L28.2425 25.97C28.4588 25.9159 28.6509 25.7911 28.7881 25.6154C28.9254 25.4396 29 25.223 29 25V7.00002C29 6.84792 28.9654 6.69783 28.8987 6.56115C28.8319 6.42447 28.7349 6.3048 28.615 6.21127ZM12 22C11.9182 22.0001 11.8368 22.0101 11.7575 22.03L5 23.7188V7.78127L11.8837 6.06002L12 6.11752V22ZM27 24.2188L20.1162 25.94L20 25.8825V10C20.0817 10.0004 20.1631 9.99072 20.2425 9.97127L27 8.28127V24.2188Z" fill="white"/>
</g>
</svg>
