<svg width="32" height="32" viewBox="0 0 32 32" fill="none" xmlns="http://www.w3.org/2000/svg">
<path d="M28.615 6.21124C28.4952 6.1179 28.3557 6.05307 28.2072 6.02166C28.0586 5.99026 27.9048 5.99311 27.7575 6.02999L20.1162 7.93999L12.4475 4.10499C12.2338 3.99841 11.9891 3.97181 11.7575 4.02999L3.7575 6.02999C3.54116 6.08406 3.3491 6.2089 3.21185 6.38465C3.0746 6.56041 3.00003 6.77699 3 6.99999V25C3.00002 25.1519 3.03467 25.3019 3.10132 25.4384C3.16797 25.575 3.26486 25.6946 3.38463 25.7881C3.50441 25.8816 3.64392 25.9466 3.79256 25.9781C3.94121 26.0096 4.09508 26.0068 4.2425 25.97L11.8837 24.06L19.5525 27.895C19.6917 27.9636 19.8448 27.9995 20 28C20.0818 27.9999 20.1632 27.9899 20.2425 27.97L28.2425 25.97C28.4588 25.9159 28.6509 25.7911 28.7881 25.6153C28.9254 25.4396 29 25.223 29 25V6.99999C29 6.84789 28.9654 6.6978 28.8987 6.56112C28.8319 6.42444 28.7349 6.30477 28.615 6.21124ZM13 6.61749L19 9.61749V25.3825L13 22.3825V6.61749ZM5 7.78124L11 6.28124V22.2187L5 23.7187V7.78124ZM27 24.2187L21 25.7187V9.78124L27 8.28124V24.2187Z" fill="white"/>
</svg>
