<svg width="18" height="18" viewBox="0 0 18 18" fill="none" xmlns="http://www.w3.org/2000/svg">
<g id="Frame">
<path id="Vector" d="M9 1.6875C7.55373 1.6875 6.13993 2.11637 4.9374 2.91988C3.73486 3.72339 2.7976 4.86544 2.24413 6.20163C1.69067 7.53781 1.54586 9.00811 1.82801 10.4266C2.11017 11.8451 2.80661 13.148 3.82928 14.1707C4.85196 15.1934 6.15492 15.8898 7.57341 16.172C8.99189 16.4541 10.4622 16.3093 11.7984 15.7559C13.1346 15.2024 14.2766 14.2651 15.0801 13.0626C15.8836 11.8601 16.3125 10.4463 16.3125 9C16.3105 7.06123 15.5394 5.20246 14.1685 3.83154C12.7975 2.46063 10.9388 1.68955 9 1.6875ZM9 15.1875C7.77623 15.1875 6.57994 14.8246 5.56241 14.1447C4.54488 13.4648 3.75182 12.4985 3.2835 11.3679C2.81518 10.2372 2.69265 8.99314 2.93139 7.79288C3.17014 6.59262 3.75944 5.49011 4.62478 4.62478C5.49012 3.75944 6.59262 3.17014 7.79288 2.93139C8.99314 2.69264 10.2372 2.81518 11.3679 3.2835C12.4985 3.75181 13.4648 4.54488 14.1447 5.56241C14.8246 6.57994 15.1875 7.77623 15.1875 9C15.1856 10.6405 14.5331 12.2132 13.3732 13.3732C12.2132 14.5331 10.6405 15.1856 9 15.1875ZM12.2105 7.47703C12.2628 7.52927 12.3043 7.59131 12.3326 7.6596C12.3609 7.72788 12.3754 7.80108 12.3754 7.875C12.3754 7.94892 12.3609 8.02212 12.3326 8.0904C12.3043 8.15869 12.2628 8.22073 12.2105 8.27297L9.39797 11.0855C9.34573 11.1378 9.28369 11.1793 9.21541 11.2076C9.14712 11.2359 9.07392 11.2504 9 11.2504C8.92608 11.2504 8.85289 11.2359 8.7846 11.2076C8.71631 11.1793 8.65428 11.1378 8.60203 11.0855L5.78953 8.27297C5.68399 8.16742 5.62469 8.02427 5.62469 7.875C5.62469 7.72573 5.68399 7.58258 5.78953 7.47703C5.89508 7.37148 6.03824 7.31219 6.1875 7.31219C6.33677 7.31219 6.47992 7.37148 6.58547 7.47703L9 9.89227L11.4145 7.47703C11.4668 7.42473 11.5288 7.38324 11.5971 7.35494C11.6654 7.32663 11.7386 7.31206 11.8125 7.31206C11.8864 7.31206 11.9596 7.32663 12.0279 7.35494C12.0962 7.38324 12.1582 7.42473 12.2105 7.47703Z" fill="#00C9AA"/>
</g>
</svg>
